/* XPM */
static char *_3327fc3717a445bffa957fb6e781756CtnkkpRhrl0aTBwm[] = {
/* columns rows colors chars-per-pixel */
"32 32 5 1 ",
"  c #412400",
". c #874B00",
"X c #827C01",
"o c #828201",
"O c #E9E800",
/* pixels */
"                                ",
" ............. .................",
" ............. .................",
" ............. .................",
" ............. .................",
"              XXXXX             ",
" ...........XXOOOOOXX...........",
" .........XXOOOOOOOOOXX.........",
" ........XOOOOOOOOOOOOOX........",
" .......XOOOOOOOOOOOOOOOX.......",
"        XOOOOOooooooOOOOX       ",
" ......XOOOOOooOOOOOOOOOOX......",
" ......XOOOOOoOOOOOOOOOOOX......",
" .....XOOOOOOoOOOOOOOOOOOOX.....",
" .....XOOOOOOoOOOOOOOOOOOOX.....",
"      XOOOOOOoOOOOOOOOOOOOX     ",
" .....XOOOOOOoOOOOOOOOOOOOX.....",
" .....XOOOOOOoOOOOOOOOOOOOX.....",
" ......XOOOOOoOOOOOOOOOOOX......",
" ......XOOOOOooOOOOOOOOOOX......",
"        XOOOOOooooooOOOOX       ",
" .......XOOOOOOOOOOOOOOOX.......",
" ........XOOOOOOOOOOOOOX........",
" .........XXOOOOOOOOOXX.........",
" ...........XXOOOOOXX...........",
"              XXXXX             ",
" ............... ...............",
" ............... ...............",
" ............... ...............",
" ............... ...............",
" ............... ...............",
"                                "
};
