/* XPM */
static char *eae3bbf85d6f4476eae216d99302f2aedmgNB4twXz0RBgOo[] = {
/* columns rows colors chars-per-pixel */
"32 32 5 1 ",
"  c black",
". c #412400",
"X c #2B0350",
"o c #864A00",
"O c #9F4FE8",
/* pixels */
"................................",
".ooooooooooooo.oooooooooOOOooooo",
".ooooooooooooo.oooooooooooOOoooo",
".ooooooooooooo.oooOOOOoooooOOooo",
".oooooOOOOOOoo.ooooooOOOoooooooo",
".....O..................OO......",
".oooooooooooXXXooooo.ooooOoooooo",
".oooooooooooooXoXXXo.oooooOooooo",
".ooooooooOooX     XX.ooooooOoooo",
".ooooooOOoXX        .oXooooOoooo",
"......OO..X           XX........",
".ooooOooooX           oXoooooooo",
".oooOOooooX           XXoooooooo",
".oooOooXXoXX          oXXooooooo",
".oooOooXoo             XooooOOoo",
"...OO..X..            X......O..",
".ooOoooXoo            .ooooooOoo",
".ooOoooXooX          o.oooooOooo",
".ooOooooooXX       XooXooooooooo",
".ooOOooooooXX    XXXoXXooooooooo",
"....O..........   ..........O...",
".oooOoooooooo.oooooooooooooOoooo",
".ooooooooXXoo.ooooooooooooOOoooo",
".oooooooooXXXXoooooooooooOOooooo",
".oooooooooooo.oooooooooOOooooooo",
".............OO....OOOO.........",
".oooOooooooooooOOOOooooooooOoooo",
".oooOOoooooooooo.ooooooooooOoooo",
".ooooOOOOOoooooo.oooooooooOOoooo",
".ooooooooOOooooo.ooooooOOOOooooo",
".ooooooooooooooo.ooooooooooooooo",
"................................"
};
