/* XPM */
static char *c4ab2de144c14eaaf38c394bc26f7744JhzhreyE3OdCjj6D[] = {
/* columns rows colors chars-per-pixel */
"32 32 2 1 ",
"  c #412400",
". c #864A00",
/* pixels */
"                                ",
" ............. .................",
" ............. .................",
" ............. .................",
" ............. .................",
"                                ",
" ................... ...........",
" ................... ...........",
" ................... ...........",
" ................... ...........",
"                                ",
" ........... ...................",
" ........... ...................",
" ........... ...................",
" ........... ...................",
"                                ",
" ..................... .........",
" ..................... .........",
" ..................... .........",
" ..................... .........",
"                                ",
" ............ ..................",
" ............ ..................",
" ............ ..................",
" ............ ..................",
"                                ",
" ............... ...............",
" ............... ...............",
" ............... ...............",
" ............... ...............",
" ............... ...............",
"                                "
};
