/* XPM */
static char *_7048b164b8c42d0d3661559551ba003l4zKO29NTOZckiii[] = {
/* columns rows colors chars-per-pixel */
"32 32 8 1 ",
"  c #010001",
". c #412400",
"X c #F90000",
"o c #864A00",
"O c #C64A00",
"+ c #BBB9B9",
"@ c #FDB3B3",
"# c #D3FCB3",
/* pixels */
"................................",
".ooooooooooooo.ooooooooooooooooo",
".ooooooooooOOOOOOOOooooooooooooo",
".ooooooooOOOOOOOOOOOOooooooooooo",
".oooooooOOOOO@OOOO@OOOoooooooooo",
"........OOO@@@@@@@@@@OO.........",
".ooooooOOO@@@@@@@@@@@@OOoooooooo",
".oooooOO@@@  @@@@  @@@@Ooooooooo",
".oooooOO@@@@@ @@ @@@@@@OOooooooo",
".oooooO@@@@ @@@@@@ @@@@@Oooooooo",
"...... @@@@ @@@@@@ @@@@@ .......",
".ooooo @@@@ @@ @@@ @@@@@ ooooooo",
".ooooo @@@@@@   @@@@@@@@ ooooooo",
".oooooo @@@@@@@@@@@@@@@ oooooooo",
".oooooo @@@@@@@@@ @@@@@ oooooooo",
"........ @@@@    @@@@@ .........",
".++oooooo @@@@@@@@@@@ oooooooooo",
".+++oooooo  @@@@@@@  ooooooooooo",
".o+++oooo  X  @@@  X  oooooooooo",
".oo+++oo  XXX@@@@@XXX  ooooooooo",
"....+++  XXXXXX@XXXXXX  ........",
".oooo+++XXX XXXXXXX XXX  ooooooo",
".ooooo++OX  XXXXXXX  XXX ooooooo",
".ooooooOO@ XXXXXXXXX @@X ooooooo",
".oooooo @O XXXXXXXXX @@ oooooooo",
"........   XXXXXXXXX   .........",
".ooooooooo XXXXXXXXX ooooooooooo",
".oooooooooo XXXXXXX oooooooooooo",
".ooooooooo   XXXXX   ooooooooooo",
".oooooooo  #  XX   #  oooooooooo",
".oooooooo ##     o ## oooooooooo",
".........    .....    .........."
};
