/* XPM */
static char *_e2a544f5e1144a1fc345a1b6d5a4b34iuZEu8vS4i0fHONo[] = {
/* columns rows colors chars-per-pixel */
"32 32 4 1 ",
"  c black",
". c #A95E04",
"X c #ED8B12",
"o c #ED8B13",
/* pixels */
"                                ",
" XXXXXXXXXXXXX X.  XXXXXXXXXXXX ",
" XXXXXXXXXXXXX    XXXXXXXXXXXXX ",
" XXXXXXXXXXXXX. XXXXXXXXXXXXXXX ",
" XXXXXXXXXXXXX. .XXXXXXXXXXXXXX ",
" .XXXXXXXXXXXX. .XXXXXXXXXXXXXX ",
" ......XXXXXX.  ...X   .XXXXX.. ",
"      .              X  ..      ",
" XXXXX  XXXXXX  XXXXXXX   XXXXX ",
" XXXXXXXXXXXXXXXXXXXXXXXXXXXXXX ",
" XXXXXXXXXXXXXXXXXXXXXXXXXXXXXX ",
" XXXXXXXXXXXXXXXXXXXXXXXXXXXXXX ",
" XXXXXXXXXXXXXX X.XXXXXXXXXXXXX ",
" .XXXXXXXXXXXXX. ..XXXXXXXXXXX. ",
" ...XXX...XXXX.. ...X.XXXXXXX.. ",
"     ...           ..    ..     ",
" ...     XX..   ..    ...  X... ",
" .XXXXXXXXXX  .XXXXXXXXXXXXXXXX ",
" XXXXXXXXXXXXXXXXXXXXXXXXXXXXXX ",
" XXXXXXXXXXXXXXXXXXXXXXXXXXXXXX ",
" XXXXXXXXXXXXXXXXXXXXXXXXXXXXXX ",
" .XXXXXXXXXXXXXXXXXXXXXXXXXXXX. ",
" ..     ...  XXXXX..     XX.... ",
"    ...        ...   ...        ",
" XXXXXXXXXX.       ..XXXXXXXXXX ",
" XXXXXXXXXX..  ..XXXXXXXXXXXXXX ",
" XXXXXXXXXXXX. .XXXXXXXXXXXXXXX ",
" XXXXXXXXXXXXXXXXXXXXXXXXXXXXXX ",
" XXXXXXXXXXXXXXXXXXXXXXXXXXXXXX ",
" ..XXXXXXXXXXXX .XXXXXXXXXXXXX. ",
" ...XXXXXXXXXX  ..XXXXXXXXXX... ",
"                                "
};
